<svg width="16" height="11" viewBox="0 0 16 11" fill="none" xmlns="http://www.w3.org/2000/svg">
<path d="M6.80511 9.50001C6.82842 9.52927 6.85347 9.5571 6.88011 9.58335C7.17857 9.88155 7.58321 10.0491 8.00511 10.0491C8.42702 10.0491 8.83166 9.88155 9.13011 9.58335C9.15676 9.5571 9.18181 9.52927 9.20511 9.50001L15.0043 1.71918C15.0922 1.6009 15.1455 1.46052 15.1582 1.31371C15.1709 1.1669 15.1426 1.01945 15.0764 0.8878C15.0102 0.756154 14.9087 0.645501 14.7832 0.568195C14.6578 0.490888 14.5133 0.449972 14.3659 0.450012H1.64678C1.49942 0.449972 1.35495 0.490888 1.2295 0.568195C1.10404 0.645501 1.00255 0.756154 0.936335 0.8878C0.870123 1.01945 0.841803 1.1669 0.854537 1.31371C0.867271 1.46052 0.920557 1.6009 1.00845 1.71918L6.80511 9.50001Z" fill="#2A2B8D"/>
</svg>
