<svg width="222" height="131" viewBox="0 0 222 131" fill="none" xmlns="http://www.w3.org/2000/svg">
<rect x="76" width="70" height="70" rx="26" fill="url(#paint0_linear)"/>
<g clip-path="url(#clip0)">
<path d="M120.263 23.9016C115.848 23.5859 111.42 24.2951 107.318 25.975L104.031 24.7793C103.895 23.4938 103.871 22.1987 103.959 20.9089C103.965 20.7917 103.948 20.6745 103.907 20.5644C103.867 20.4544 103.805 20.3538 103.725 20.2687C103.645 20.1837 103.549 20.116 103.442 20.0698C103.336 20.0236 103.221 19.9998 103.105 20C102.987 20 100.148 20.0432 96.5213 23.7098C92.476 27.7945 92.0199 35.6166 92.0011 35.9415C91.9897 36.1666 92.0657 36.3873 92.213 36.5566C93.7336 38.1007 95.7055 39.1082 97.8366 39.43C100.533 39.7804 103.272 39.327 105.717 38.1255L103.36 42.6802C103.323 42.75 103.269 42.8085 103.202 42.8493C103.135 42.8901 103.058 42.9117 102.98 42.9117H93.7094C93.2563 42.9117 92.8218 43.0938 92.5015 43.4178C92.1811 43.7419 92.0011 44.1814 92.0011 44.6396C92.0011 45.0979 92.1811 45.5374 92.5015 45.8614C92.8218 46.1855 93.2563 46.3675 93.7094 46.3675H113.782C114.235 46.3675 114.669 46.1855 114.99 45.8614C115.31 45.5374 115.49 45.0979 115.49 44.6396C115.49 44.1814 115.31 43.7419 114.99 43.4178C114.669 43.0938 114.235 42.9117 113.782 42.9117H110.621C110.549 42.9116 110.478 42.8929 110.415 42.8575C110.351 42.822 110.298 42.771 110.26 42.7091C110.221 42.6472 110.199 42.5764 110.194 42.5034C110.19 42.4304 110.204 42.3575 110.235 42.2914L113.9 34.5989C113.969 34.4437 114.068 34.3038 114.19 34.1872C114.313 34.0706 114.457 33.9796 114.615 33.9193C114.772 33.8591 114.94 33.8308 115.108 33.836C115.276 33.8413 115.442 33.8801 115.595 33.9501C115.749 34.0201 115.887 34.12 116.002 34.244C116.117 34.3681 116.207 34.5139 116.267 34.6732C116.327 34.8324 116.355 35.002 116.349 35.1721C116.344 35.3423 116.306 35.5098 116.237 35.665L114.819 38.8426C114.79 38.9086 114.778 38.9809 114.783 39.0529C114.788 39.125 114.811 39.1946 114.849 39.2555C114.888 39.316 114.941 39.3658 115.004 39.4002C115.067 39.4346 115.137 39.4526 115.208 39.4525H117.95C122.75 39.4525 128.302 41.7091 128.302 47.228C128.301 48.4878 127.805 49.6956 126.925 50.5864C126.044 51.4772 124.85 51.9783 123.604 51.9797C123.064 51.9793 122.529 51.8637 122.036 51.6405C121.542 51.4172 121.1 51.0912 120.74 50.6838C120.621 50.5581 120.529 50.4097 120.468 50.2472C120.407 50.0848 120.379 49.9116 120.386 49.7381C120.393 49.5646 120.434 49.3942 120.507 49.237C120.58 49.0799 120.684 48.9392 120.812 48.8233C120.94 48.7075 121.089 48.6188 121.252 48.5627C121.414 48.5065 121.586 48.4839 121.758 48.4962C121.929 48.5086 122.096 48.5557 122.249 48.6346C122.402 48.7136 122.537 48.8228 122.648 48.9559C122.768 49.0916 122.916 49.2003 123.081 49.2747C123.246 49.3491 123.424 49.3876 123.604 49.3878C124.17 49.3869 124.713 49.1591 125.113 48.7542C125.514 48.3494 125.739 47.8005 125.74 47.228C125.723 46.5668 125.493 45.9292 125.086 45.412C122.608 42.0737 117.625 45.1718 117.625 48.9524C117.625 52.733 120.188 55 124.459 55C130.065 55 133 47.1779 133 39.4491C133 30.1807 128.478 24.6584 120.263 23.9016Z" fill="#0F1046"/>
<path d="M100.5 35C102.433 35 104 33.433 104 31.5C104 29.567 102.433 28 100.5 28C98.567 28 97 29.567 97 31.5C97 33.433 98.567 35 100.5 35Z" fill="white"/>
<path d="M100.5 33C101.328 33 102 32.3284 102 31.5C102 30.6716 101.328 30 100.5 30C99.6716 30 99 30.6716 99 31.5C99 32.3284 99.6716 33 100.5 33Z" fill="#2A2B8D"/>
</g>
<path d="M0.0292969 97.2676C0.0292969 95.5215 1.00195 94.6484 2.94727 94.6484C4.89258 94.6484 5.86523 95.5215 5.86523 97.2676C5.86523 98.0996 5.61914 98.75 5.12695 99.2188C4.64648 99.6758 3.91992 99.9043 2.94727 99.9043C1.00195 99.9043 0.0292969 99.0254 0.0292969 97.2676ZM5.61914 122H0.257812V102.348H5.61914V122ZM28.8574 122H23.4961V110.521C23.4961 109.104 23.2559 108.043 22.7754 107.34C22.3066 106.625 21.5625 106.268 20.543 106.268C19.1719 106.268 18.1758 106.771 17.5547 107.779C16.9336 108.787 16.623 110.445 16.623 112.754V122H11.2617V102.348H15.3574L16.0781 104.861H16.377C16.9043 103.959 17.666 103.256 18.6621 102.752C19.6582 102.236 20.8008 101.979 22.0898 101.979C25.0312 101.979 27.0234 102.939 28.0664 104.861H28.541C29.0684 103.947 29.8418 103.238 30.8613 102.734C31.8926 102.23 33.0527 101.979 34.3418 101.979C36.5684 101.979 38.25 102.553 39.3867 103.701C40.5352 104.838 41.1094 106.666 41.1094 109.186V122H35.7305V110.521C35.7305 109.104 35.4902 108.043 35.0098 107.34C34.541 106.625 33.7969 106.268 32.7773 106.268C31.4648 106.268 30.4805 106.736 29.8242 107.674C29.1797 108.611 28.8574 110.1 28.8574 112.139V122ZM59.1094 122L58.0723 119.328H57.9316C57.0293 120.465 56.0977 121.256 55.1367 121.701C54.1875 122.135 52.9453 122.352 51.4102 122.352C49.5234 122.352 48.0352 121.812 46.9453 120.734C45.8672 119.656 45.3281 118.121 45.3281 116.129C45.3281 114.043 46.0547 112.508 47.5078 111.523C48.9727 110.527 51.1758 109.977 54.1172 109.871L57.5273 109.766V108.904C57.5273 106.912 56.5078 105.916 54.4688 105.916C52.8984 105.916 51.0527 106.391 48.9316 107.34L47.1562 103.719C49.418 102.535 51.9258 101.943 54.6797 101.943C57.3164 101.943 59.3379 102.518 60.7441 103.666C62.1504 104.814 62.8535 106.561 62.8535 108.904V122H59.1094ZM57.5273 112.895L55.4531 112.965C53.8945 113.012 52.7344 113.293 51.9727 113.809C51.2109 114.324 50.8301 115.109 50.8301 116.164C50.8301 117.676 51.6973 118.432 53.4316 118.432C54.6738 118.432 55.6641 118.074 56.4023 117.359C57.1523 116.645 57.5273 115.695 57.5273 114.512V112.895ZM85.4941 102.348V105.072L82.418 105.863C82.9805 106.742 83.2617 107.727 83.2617 108.816C83.2617 110.926 82.5234 112.572 81.0469 113.756C79.582 114.928 77.543 115.514 74.9297 115.514L73.9629 115.461L73.1719 115.373C72.6211 115.795 72.3457 116.264 72.3457 116.779C72.3457 117.553 73.3301 117.939 75.2988 117.939H78.6387C80.7949 117.939 82.4355 118.402 83.5605 119.328C84.6973 120.254 85.2656 121.613 85.2656 123.406C85.2656 125.703 84.3047 127.484 82.3828 128.75C80.4727 130.016 77.7246 130.648 74.1387 130.648C71.3965 130.648 69.2988 130.168 67.8457 129.207C66.4043 128.258 65.6836 126.922 65.6836 125.199C65.6836 124.016 66.0527 123.025 66.791 122.229C67.5293 121.432 68.6133 120.863 70.043 120.523C69.4922 120.289 69.0117 119.908 68.6016 119.381C68.1914 118.842 67.9863 118.273 67.9863 117.676C67.9863 116.926 68.2031 116.305 68.6367 115.812C69.0703 115.309 69.6973 114.816 70.5176 114.336C69.4863 113.891 68.666 113.176 68.0566 112.191C67.459 111.207 67.1602 110.047 67.1602 108.711C67.1602 106.566 67.8574 104.908 69.252 103.736C70.6465 102.564 72.6387 101.979 75.2285 101.979C75.7793 101.979 76.4297 102.031 77.1797 102.137C77.9414 102.23 78.4277 102.301 78.6387 102.348H85.4941ZM70.3242 124.777C70.3242 125.516 70.6758 126.096 71.3789 126.518C72.0938 126.939 73.0898 127.15 74.3672 127.15C76.2891 127.15 77.7949 126.887 78.8848 126.359C79.9746 125.832 80.5195 125.111 80.5195 124.197C80.5195 123.459 80.1973 122.949 79.5527 122.668C78.9082 122.387 77.9121 122.246 76.5645 122.246H73.7871C72.8027 122.246 71.9766 122.475 71.3086 122.932C70.6523 123.4 70.3242 124.016 70.3242 124.777ZM72.2754 108.781C72.2754 109.848 72.5156 110.691 72.9961 111.312C73.4883 111.934 74.2324 112.244 75.2285 112.244C76.2363 112.244 76.9746 111.934 77.4434 111.312C77.9121 110.691 78.1465 109.848 78.1465 108.781C78.1465 106.414 77.1738 105.23 75.2285 105.23C73.2598 105.23 72.2754 106.414 72.2754 108.781ZM96.8848 105.793C95.748 105.793 94.8574 106.156 94.2129 106.883C93.5684 107.598 93.1992 108.617 93.1055 109.941H100.629C100.605 108.617 100.26 107.598 99.5918 106.883C98.9238 106.156 98.0215 105.793 96.8848 105.793ZM97.6406 122.352C94.4766 122.352 92.0039 121.479 90.2227 119.732C88.4414 117.986 87.5508 115.514 87.5508 112.314C87.5508 109.021 88.3711 106.479 90.0117 104.686C91.6641 102.881 93.9434 101.979 96.8496 101.979C99.627 101.979 101.789 102.77 103.336 104.352C104.883 105.934 105.656 108.119 105.656 110.908V113.51H92.9824C93.041 115.033 93.4922 116.223 94.3359 117.078C95.1797 117.934 96.3633 118.361 97.8867 118.361C99.0703 118.361 100.189 118.238 101.244 117.992C102.299 117.746 103.4 117.354 104.549 116.814V120.963C103.611 121.432 102.609 121.777 101.543 122C100.477 122.234 99.1758 122.352 97.6406 122.352ZM131.602 117.025C131.602 118.736 130.951 120.055 129.65 120.98C128.35 121.895 126.504 122.352 124.113 122.352C121.559 122.352 119.531 121.959 118.031 121.174V119.293C119.953 120.254 121.98 120.734 124.113 120.734C126 120.734 127.43 120.424 128.402 119.803C129.387 119.17 129.879 118.332 129.879 117.289C129.879 116.328 129.486 115.52 128.701 114.863C127.928 114.207 126.65 113.562 124.869 112.93C122.959 112.238 121.617 111.646 120.844 111.154C120.07 110.65 119.484 110.088 119.086 109.467C118.699 108.834 118.506 108.066 118.506 107.164C118.506 105.734 119.104 104.604 120.299 103.771C121.506 102.939 123.188 102.523 125.344 102.523C127.406 102.523 129.363 102.91 131.215 103.684L130.564 105.266C128.689 104.492 126.949 104.105 125.344 104.105C123.785 104.105 122.549 104.363 121.635 104.879C120.721 105.395 120.264 106.109 120.264 107.023C120.264 108.02 120.615 108.816 121.318 109.414C122.033 110.012 123.422 110.68 125.484 111.418C127.207 112.039 128.461 112.602 129.246 113.105C130.031 113.598 130.617 114.16 131.004 114.793C131.402 115.426 131.602 116.17 131.602 117.025ZM144.24 122.352C141.463 122.352 139.295 121.496 137.736 119.785C136.189 118.074 135.416 115.678 135.416 112.596C135.416 109.549 136.166 107.111 137.666 105.283C139.166 103.443 141.188 102.523 143.73 102.523C145.98 102.523 147.756 103.309 149.057 104.879C150.357 106.449 151.008 108.582 151.008 111.277V112.684H137.244C137.268 115.309 137.877 117.312 139.072 118.695C140.279 120.078 142.002 120.77 144.24 120.77C145.33 120.77 146.285 120.693 147.105 120.541C147.938 120.389 148.986 120.061 150.252 119.557V121.139C149.174 121.607 148.178 121.924 147.264 122.088C146.35 122.264 145.342 122.352 144.24 122.352ZM143.73 104.07C141.891 104.07 140.414 104.68 139.301 105.898C138.188 107.105 137.537 108.852 137.35 111.137H149.162C149.162 108.922 148.682 107.193 147.721 105.951C146.76 104.697 145.43 104.07 143.73 104.07ZM167.883 122L167.443 118.977H167.303C166.342 120.207 165.352 121.08 164.332 121.596C163.324 122.1 162.129 122.352 160.746 122.352C158.871 122.352 157.412 121.871 156.369 120.91C155.326 119.949 154.805 118.619 154.805 116.92C154.805 115.057 155.578 113.609 157.125 112.578C158.684 111.547 160.934 111.002 163.875 110.943L167.514 110.838V109.572C167.514 107.756 167.145 106.385 166.406 105.459C165.668 104.533 164.479 104.07 162.838 104.07C161.068 104.07 159.234 104.562 157.336 105.547L156.686 104.035C158.783 103.051 160.857 102.559 162.908 102.559C165.006 102.559 166.57 103.104 167.602 104.193C168.645 105.283 169.166 106.982 169.166 109.291V122H167.883ZM160.852 120.77C162.891 120.77 164.496 120.189 165.668 119.029C166.852 117.857 167.443 116.234 167.443 114.16V112.279L164.104 112.42C161.42 112.549 159.504 112.971 158.355 113.686C157.219 114.389 156.65 115.49 156.65 116.99C156.65 118.186 157.014 119.117 157.74 119.785C158.479 120.441 159.516 120.77 160.852 120.77ZM182.895 102.523C183.703 102.523 184.57 102.605 185.496 102.77L185.162 104.439C184.365 104.24 183.539 104.141 182.684 104.141C181.055 104.141 179.719 104.832 178.676 106.215C177.633 107.598 177.111 109.344 177.111 111.453V122H175.371V102.893H176.848L177.023 106.338H177.146C177.932 104.932 178.77 103.947 179.66 103.385C180.551 102.811 181.629 102.523 182.895 102.523ZM197.027 122.352C194.297 122.352 192.158 121.49 190.611 119.768C189.064 118.045 188.291 115.643 188.291 112.561C188.291 109.396 189.094 106.936 190.699 105.178C192.305 103.408 194.502 102.523 197.291 102.523C198.943 102.523 200.525 102.811 202.037 103.385L201.562 104.932C199.91 104.381 198.475 104.105 197.256 104.105C194.912 104.105 193.137 104.832 191.93 106.285C190.723 107.727 190.119 109.807 190.119 112.525C190.119 115.104 190.723 117.125 191.93 118.59C193.137 120.043 194.824 120.77 196.992 120.77C198.727 120.77 200.338 120.459 201.826 119.838V121.455C200.607 122.053 199.008 122.352 197.027 122.352ZM219.844 122V109.607C219.844 107.686 219.439 106.291 218.631 105.424C217.822 104.545 216.568 104.105 214.869 104.105C212.584 104.105 210.908 104.686 209.842 105.846C208.787 106.994 208.26 108.863 208.26 111.453V122H206.52V94.6484H208.26V103.35L208.172 105.793H208.295C209.01 104.645 209.912 103.812 211.002 103.297C212.092 102.781 213.445 102.523 215.062 102.523C219.398 102.523 221.566 104.85 221.566 109.502V122H219.844Z" fill="white"/>
<defs>
<linearGradient id="paint0_linear" x1="140.928" y1="90.2898" x2="83.1014" y2="-24.3478" gradientUnits="userSpaceOnUse">
<stop stop-color="#2A2B8D"/>
<stop offset="0.0331492" stop-color="#2B2F8F"/>
<stop offset="1" stop-color="#559BD1"/>
</linearGradient>
<clipPath id="clip0">
<rect width="40" height="40" fill="white" transform="translate(92 18)"/>
</clipPath>
</defs>
</svg>
