<svg width="31" height="41" viewBox="0 0 31 41" fill="none" xmlns="http://www.w3.org/2000/svg">
<path fill-rule="evenodd" clip-rule="evenodd" d="M28.5718 22.1216C29.9668 19.9246 30.7692 17.3505 30.7692 14.5985C30.7692 6.53599 23.8813 0 15.3846 0C6.88793 0 0 6.53599 0 14.5985C0 17.3469 0.800361 19.9178 2.19198 22.113L11.9673 38.1793C13.5256 40.7404 17.2434 40.7404 18.8017 38.1793L28.5718 22.1216ZM22.0511 14.5985C22.0511 18.0923 19.0663 20.9246 15.3844 20.9246C11.7025 20.9246 8.71777 18.0923 8.71777 14.5985C8.71777 11.1048 11.7025 8.27251 15.3844 8.27251C19.0663 8.27251 22.0511 11.1048 22.0511 14.5985Z" fill="#050417"/>
</svg>
